{
 "cells": [
  {
   "cell_type": "raw",
   "metadata": {},
   "source": [
    "---\n",
    "title: \"Sound file properties\"\n",
    "date: 2020-04-12T14:41:32+02:00\n",
    "author: \"Othmane Rifki\"\n",
    "type: technical_note\n",
    "draft: false\n",
    "---"
   ]
  },
  {
   "cell_type": "code",
   "execution_count": 6,
   "metadata": {},
   "outputs": [],
   "source": [
    "filename = '/Users/othrif/spectrum/voice/datasets/free-spoken-digit-dataset/recordings/4_yweweler_5.wav'"
   ]
  },
  {
   "cell_type": "markdown",
   "metadata": {},
   "source": [
    "# In python"
   ]
  },
  {
   "cell_type": "code",
   "execution_count": 8,
   "metadata": {},
   "outputs": [
    {
     "data": {
      "text/plain": [
       "{'channels': 1,\n",
       " 'sample_rate': 8000.0,\n",
       " 'bitdepth': 16,\n",
       " 'bitrate': 129000.0,\n",
       " 'duration': 0.333875,\n",
       " 'num_samples': 2671,\n",
       " 'encoding': 'Signed Integer PCM',\n",
       " 'silent': False}"
      ]
     },
     "execution_count": 8,
     "metadata": {},
     "output_type": "execute_result"
    }
   ],
   "source": [
    "import sox\n",
    "sox.file_info.info(filename)"
   ]
  },
  {
   "cell_type": "markdown",
   "metadata": {},
   "source": [
    "# In CLI"
   ]
  },
  {
   "cell_type": "code",
   "execution_count": 12,
   "metadata": {},
   "outputs": [
    {
     "name": "stdout",
     "output_type": "stream",
     "text": [
      "\n",
      "Input File     : '/Users/othrif/spectrum/voice/datasets/free-spoken-digit-dataset/recordings/4_yweweler_5.wav'\n",
      "Channels       : 1\n",
      "Sample Rate    : 8000\n",
      "Precision      : 16-bit\n",
      "Duration       : 00:00:00.33 = 2671 samples ~ 25.0406 CDDA sectors\n",
      "File Size      : 5.39k\n",
      "Bit Rate       : 129k\n",
      "Sample Encoding: 16-bit Signed Integer PCM\n",
      "\n"
     ]
    }
   ],
   "source": [
    "!soxi /Users/othrif/spectrum/voice/datasets/free-spoken-digit-dataset/recordings/4_yweweler_5.wav"
   ]
  },
  {
   "cell_type": "markdown",
   "metadata": {},
   "source": [
    "# Convert file to a specified bit and sample rates\n",
    "\n",
    "``` bash \n",
    "sox <input> -b 16 -r 16000 <output>\n",
    "soxi <input>\n",
    "```"
   ]
  }
 ],
 "metadata": {
  "kernelspec": {
   "display_name": "Python 3",
   "language": "python",
   "name": "python3"
  },
  "language_info": {
   "codemirror_mode": {
    "name": "ipython",
    "version": 3
   },
   "file_extension": ".py",
   "mimetype": "text/x-python",
   "name": "python",
   "nbconvert_exporter": "python",
   "pygments_lexer": "ipython3",
   "version": "3.8.5"
  }
 },
 "nbformat": 4,
 "nbformat_minor": 4
}
